<mxfile host="app.diagrams.net" modified="2022-07-22T15:48:45.352Z" agent="5.0 (Windows NT 10.0; Win64; x64) AppleWebKit/537.36 (KHTML, like Gecko) Chrome/103.0.0.0 Safari/537.36" etag="ME6m6UCLOS6m-Nua8sve" version="20.1.1" type="github">
  <diagram id="4MBhD8-7CLioCw5Sy-SI" name="Page-1">
    <mxGraphModel dx="1962" dy="595" grid="1" gridSize="10" guides="1" tooltips="1" connect="1" arrows="1" fold="1" page="1" pageScale="1" pageWidth="827" pageHeight="1169" math="0" shadow="0">
      <root>
        <mxCell id="0" />
        <mxCell id="1" parent="0" />
        <mxCell id="2FC1ufxekYEBjPLhtF5f-108" value="CAPA DE LOGICA" style="shape=folder;fontStyle=1;spacingTop=10;tabWidth=40;tabHeight=14;tabPosition=left;html=1;strokeColor=default;fillColor=default;verticalAlign=top;" parent="1" vertex="1">
          <mxGeometry x="-520" y="920" width="1120" height="560" as="geometry" />
        </mxCell>
        <mxCell id="2FC1ufxekYEBjPLhtF5f-78" value="CAPA DE CONECCION A BASE DE DATOS" style="shape=folder;fontStyle=1;spacingTop=10;tabWidth=40;tabHeight=14;tabPosition=left;html=1;strokeColor=default;fillColor=default;verticalAlign=top;" parent="1" vertex="1">
          <mxGeometry x="-520" y="280" width="1120" height="240" as="geometry" />
        </mxCell>
        <mxCell id="2FC1ufxekYEBjPLhtF5f-77" value="CAPA DE DOMINO" style="shape=folder;fontStyle=1;spacingTop=10;tabWidth=40;tabHeight=14;tabPosition=left;html=1;strokeColor=default;fillColor=default;verticalAlign=top;" parent="1" vertex="1">
          <mxGeometry x="-520" y="40" width="1120" height="200" as="geometry" />
        </mxCell>
        <mxCell id="2FC1ufxekYEBjPLhtF5f-76" value="CAPA DE LOGICA" style="shape=folder;fontStyle=1;spacingTop=10;tabWidth=40;tabHeight=14;tabPosition=left;html=1;strokeColor=default;fillColor=default;verticalAlign=top;" parent="1" vertex="1">
          <mxGeometry x="-520" y="560" width="1120" height="240" as="geometry" />
        </mxCell>
        <mxCell id="8GDeiO6cNgvrfYdbUPF--6" value="LibroModel" style="swimlane;fontStyle=1;align=center;verticalAlign=top;childLayout=stackLayout;horizontal=1;startSize=26;horizontalStack=0;resizeParent=1;resizeParentMax=0;resizeLast=0;collapsible=1;marginBottom=0;" parent="1" vertex="1">
          <mxGeometry x="-370" y="80" width="100" height="98" as="geometry" />
        </mxCell>
        <mxCell id="8GDeiO6cNgvrfYdbUPF--7" value="+ Nombre&#xa;+ Autor&#xa;+ CodigoISBN&#xa;&#xa;" style="text;strokeColor=none;fillColor=none;align=left;verticalAlign=top;spacingLeft=4;spacingRight=4;overflow=hidden;rotatable=0;points=[[0,0.5],[1,0.5]];portConstraint=eastwest;" parent="8GDeiO6cNgvrfYdbUPF--6" vertex="1">
          <mxGeometry y="26" width="100" height="64" as="geometry" />
        </mxCell>
        <mxCell id="8GDeiO6cNgvrfYdbUPF--8" value="" style="line;strokeWidth=1;fillColor=none;align=left;verticalAlign=middle;spacingTop=-1;spacingLeft=3;spacingRight=3;rotatable=0;labelPosition=right;points=[];portConstraint=eastwest;" parent="8GDeiO6cNgvrfYdbUPF--6" vertex="1">
          <mxGeometry y="90" width="100" height="8" as="geometry" />
        </mxCell>
        <mxCell id="7EzZ68nywVVAHR82G-X7-1" value="EjemplarModel" style="swimlane;fontStyle=1;align=center;verticalAlign=top;childLayout=stackLayout;horizontal=1;startSize=26;horizontalStack=0;resizeParent=1;resizeParentMax=0;resizeLast=0;collapsible=1;marginBottom=0;" parent="1" vertex="1">
          <mxGeometry x="-150" y="80" width="130" height="98" as="geometry">
            <mxRectangle x="280" y="40" width="130" height="30" as="alternateBounds" />
          </mxGeometry>
        </mxCell>
        <mxCell id="7EzZ68nywVVAHR82G-X7-2" value="+ NumEdicion&#xa;+ Ubicaciob&#xa;+ EstaPrestado" style="text;strokeColor=none;fillColor=none;align=left;verticalAlign=top;spacingLeft=4;spacingRight=4;overflow=hidden;rotatable=0;points=[[0,0.5],[1,0.5]];portConstraint=eastwest;" parent="7EzZ68nywVVAHR82G-X7-1" vertex="1">
          <mxGeometry y="26" width="130" height="64" as="geometry" />
        </mxCell>
        <mxCell id="7EzZ68nywVVAHR82G-X7-3" value="" style="line;strokeWidth=1;fillColor=none;align=left;verticalAlign=middle;spacingTop=-1;spacingLeft=3;spacingRight=3;rotatable=0;labelPosition=right;points=[];portConstraint=eastwest;" parent="7EzZ68nywVVAHR82G-X7-1" vertex="1">
          <mxGeometry y="90" width="130" height="8" as="geometry" />
        </mxCell>
        <mxCell id="2FC1ufxekYEBjPLhtF5f-1" value="PrestamoModel" style="swimlane;fontStyle=1;align=center;verticalAlign=top;childLayout=stackLayout;horizontal=1;startSize=26;horizontalStack=0;resizeParent=1;resizeParentMax=0;resizeLast=0;collapsible=1;marginBottom=0;" parent="1" vertex="1">
          <mxGeometry x="70" y="80" width="120" height="98" as="geometry" />
        </mxCell>
        <mxCell id="2FC1ufxekYEBjPLhtF5f-2" value="+ FechaPrestaomo&#xa;+ EstaFinalizado" style="text;strokeColor=none;fillColor=none;align=left;verticalAlign=top;spacingLeft=4;spacingRight=4;overflow=hidden;rotatable=0;points=[[0,0.5],[1,0.5]];portConstraint=eastwest;" parent="2FC1ufxekYEBjPLhtF5f-1" vertex="1">
          <mxGeometry y="26" width="120" height="64" as="geometry" />
        </mxCell>
        <mxCell id="2FC1ufxekYEBjPLhtF5f-3" value="" style="line;strokeWidth=1;fillColor=none;align=left;verticalAlign=middle;spacingTop=-1;spacingLeft=3;spacingRight=3;rotatable=0;labelPosition=right;points=[];portConstraint=eastwest;" parent="2FC1ufxekYEBjPLhtF5f-1" vertex="1">
          <mxGeometry y="90" width="120" height="8" as="geometry" />
        </mxCell>
        <mxCell id="2FC1ufxekYEBjPLhtF5f-5" value="SocioModel" style="swimlane;fontStyle=1;align=center;verticalAlign=top;childLayout=stackLayout;horizontal=1;startSize=30;horizontalStack=0;resizeParent=1;resizeParentMax=0;resizeLast=0;collapsible=1;marginBottom=0;" parent="1" vertex="1">
          <mxGeometry x="360" y="80" width="100" height="132" as="geometry" />
        </mxCell>
        <mxCell id="2FC1ufxekYEBjPLhtF5f-6" value="+ Nombre&#xa;+ Apellido&#xa;+ NumIdentificacion&#xa;+ CoutpSoncio&#xa;+ Easenoopry" style="text;strokeColor=none;fillColor=none;align=left;verticalAlign=top;spacingLeft=4;spacingRight=4;overflow=hidden;rotatable=0;points=[[0,0.5],[1,0.5]];portConstraint=eastwest;" parent="2FC1ufxekYEBjPLhtF5f-5" vertex="1">
          <mxGeometry y="30" width="100" height="94" as="geometry" />
        </mxCell>
        <mxCell id="2FC1ufxekYEBjPLhtF5f-7" value="" style="line;strokeWidth=1;fillColor=none;align=left;verticalAlign=middle;spacingTop=-1;spacingLeft=3;spacingRight=3;rotatable=0;labelPosition=right;points=[];portConstraint=eastwest;" parent="2FC1ufxekYEBjPLhtF5f-5" vertex="1">
          <mxGeometry y="124" width="100" height="8" as="geometry" />
        </mxCell>
        <mxCell id="2FC1ufxekYEBjPLhtF5f-12" value="EjemplarReeprosovority" style="swimlane;fontStyle=1;align=center;verticalAlign=top;childLayout=stackLayout;horizontal=1;startSize=26;horizontalStack=0;resizeParent=1;resizeParentMax=0;resizeLast=0;collapsible=1;marginBottom=0;" parent="1" vertex="1">
          <mxGeometry x="-180" y="342" width="210" height="116" as="geometry">
            <mxRectangle x="280" y="40" width="130" height="30" as="alternateBounds" />
          </mxGeometry>
        </mxCell>
        <mxCell id="2FC1ufxekYEBjPLhtF5f-13" value="- database : DbContext" style="text;strokeColor=none;fillColor=none;align=left;verticalAlign=top;spacingLeft=4;spacingRight=4;overflow=hidden;rotatable=0;points=[[0,0.5],[1,0.5]];portConstraint=eastwest;" parent="2FC1ufxekYEBjPLhtF5f-12" vertex="1">
          <mxGeometry y="26" width="210" height="24" as="geometry" />
        </mxCell>
        <mxCell id="2FC1ufxekYEBjPLhtF5f-14" value="" style="line;strokeWidth=1;fillColor=none;align=left;verticalAlign=middle;spacingTop=-1;spacingLeft=3;spacingRight=3;rotatable=0;labelPosition=right;points=[];portConstraint=eastwest;" parent="2FC1ufxekYEBjPLhtF5f-12" vertex="1">
          <mxGeometry y="50" width="210" height="8" as="geometry" />
        </mxCell>
        <mxCell id="2FC1ufxekYEBjPLhtF5f-27" value="+ AgregarEjempalar(int, string, strign)&lt;br&gt;+ ExisteEjemplar(sing,iint)&lt;br&gt;+ Ejemplares disponibles(string)" style="text;html=1;strokeColor=none;fillColor=none;align=left;verticalAlign=middle;whiteSpace=wrap;rounded=0;" parent="2FC1ufxekYEBjPLhtF5f-12" vertex="1">
          <mxGeometry y="58" width="210" height="58" as="geometry" />
        </mxCell>
        <mxCell id="2FC1ufxekYEBjPLhtF5f-15" value="PrestamoRepository" style="swimlane;fontStyle=1;align=center;verticalAlign=top;childLayout=stackLayout;horizontal=1;startSize=26;horizontalStack=0;resizeParent=1;resizeParentMax=0;resizeLast=0;collapsible=1;marginBottom=0;" parent="1" vertex="1">
          <mxGeometry x="70" y="342" width="220" height="130" as="geometry" />
        </mxCell>
        <mxCell id="2FC1ufxekYEBjPLhtF5f-16" value="- database : DbContext" style="text;strokeColor=none;fillColor=none;align=left;verticalAlign=top;spacingLeft=4;spacingRight=4;overflow=hidden;rotatable=0;points=[[0,0.5],[1,0.5]];portConstraint=eastwest;" parent="2FC1ufxekYEBjPLhtF5f-15" vertex="1">
          <mxGeometry y="26" width="220" height="24" as="geometry" />
        </mxCell>
        <mxCell id="2FC1ufxekYEBjPLhtF5f-17" value="" style="line;strokeWidth=1;fillColor=none;align=left;verticalAlign=middle;spacingTop=-1;spacingLeft=3;spacingRight=3;rotatable=0;labelPosition=right;points=[];portConstraint=eastwest;" parent="2FC1ufxekYEBjPLhtF5f-15" vertex="1">
          <mxGeometry y="50" width="220" height="8" as="geometry" />
        </mxCell>
        <mxCell id="2FC1ufxekYEBjPLhtF5f-28" value="+ CreatePrestamo(string,int)&lt;br&gt;+ DevolverEjemplar(int,shtring)&lt;br&gt;+ GetPrestamo()&lt;br&gt;&lt;div style=&quot;&quot;&gt;&lt;span style=&quot;background-color: initial;&quot;&gt;+ ExistePrestamoPendiente(int, string)&lt;/span&gt;&lt;/div&gt;" style="text;html=1;strokeColor=none;fillColor=none;align=left;verticalAlign=middle;whiteSpace=wrap;rounded=0;" parent="2FC1ufxekYEBjPLhtF5f-15" vertex="1">
          <mxGeometry y="58" width="220" height="72" as="geometry" />
        </mxCell>
        <mxCell id="2FC1ufxekYEBjPLhtF5f-18" value="SocioRepository" style="swimlane;fontStyle=1;align=center;verticalAlign=top;childLayout=stackLayout;horizontal=1;startSize=26;horizontalStack=0;resizeParent=1;resizeParentMax=0;resizeLast=0;collapsible=1;marginBottom=0;" parent="1" vertex="1">
          <mxGeometry x="360" y="340" width="170" height="120" as="geometry" />
        </mxCell>
        <mxCell id="2FC1ufxekYEBjPLhtF5f-19" value="- database : DbContext" style="text;strokeColor=none;fillColor=none;align=left;verticalAlign=top;spacingLeft=4;spacingRight=4;overflow=hidden;rotatable=0;points=[[0,0.5],[1,0.5]];portConstraint=eastwest;" parent="2FC1ufxekYEBjPLhtF5f-18" vertex="1">
          <mxGeometry y="26" width="170" height="34" as="geometry" />
        </mxCell>
        <mxCell id="2FC1ufxekYEBjPLhtF5f-30" value="+ ExisteSocio(int)&lt;br&gt;+ GetByIdentificacion(int)&lt;br&gt;+ AddSocio(SocioNodel)" style="text;html=1;strokeColor=default;fillColor=default;align=left;verticalAlign=middle;whiteSpace=wrap;rounded=0;" parent="2FC1ufxekYEBjPLhtF5f-18" vertex="1">
          <mxGeometry y="60" width="170" height="60" as="geometry" />
        </mxCell>
        <mxCell id="2FC1ufxekYEBjPLhtF5f-22" value="LibroRepositry" style="swimlane;fontStyle=1;align=center;verticalAlign=top;childLayout=stackLayout;horizontal=1;startSize=26;horizontalStack=0;resizeParent=1;resizeParentMax=0;resizeLast=0;collapsible=1;marginBottom=0;" parent="1" vertex="1">
          <mxGeometry x="-380" y="342" width="140" height="100" as="geometry">
            <mxRectangle x="280" y="40" width="130" height="30" as="alternateBounds" />
          </mxGeometry>
        </mxCell>
        <mxCell id="2FC1ufxekYEBjPLhtF5f-23" value="- database : DbContext" style="text;strokeColor=none;fillColor=none;align=left;verticalAlign=top;spacingLeft=4;spacingRight=4;overflow=hidden;rotatable=0;points=[[0,0.5],[1,0.5]];portConstraint=eastwest;" parent="2FC1ufxekYEBjPLhtF5f-22" vertex="1">
          <mxGeometry y="26" width="140" height="24" as="geometry" />
        </mxCell>
        <mxCell id="2FC1ufxekYEBjPLhtF5f-24" value="" style="line;strokeWidth=1;fillColor=none;align=left;verticalAlign=middle;spacingTop=-1;spacingLeft=3;spacingRight=3;rotatable=0;labelPosition=right;points=[];portConstraint=eastwest;" parent="2FC1ufxekYEBjPLhtF5f-22" vertex="1">
          <mxGeometry y="50" width="140" height="8" as="geometry" />
        </mxCell>
        <mxCell id="2FC1ufxekYEBjPLhtF5f-25" value="+ AddLibro(libro)&lt;br&gt;+ ExisteLibro(string)" style="text;html=1;strokeColor=none;fillColor=none;align=left;verticalAlign=middle;whiteSpace=wrap;rounded=0;" parent="2FC1ufxekYEBjPLhtF5f-22" vertex="1">
          <mxGeometry y="58" width="140" height="42" as="geometry" />
        </mxCell>
        <mxCell id="2FC1ufxekYEBjPLhtF5f-31" value="Use" style="endArrow=open;endSize=12;dashed=1;html=1;rounded=0;entryX=0.25;entryY=1;entryDx=0;entryDy=0;exitX=0.148;exitY=-0.033;exitDx=0;exitDy=0;exitPerimeter=0;" parent="1" source="2FC1ufxekYEBjPLhtF5f-18" target="2FC1ufxekYEBjPLhtF5f-5" edge="1">
          <mxGeometry x="-0.0145" width="160" relative="1" as="geometry">
            <mxPoint x="520" y="278" as="sourcePoint" />
            <mxPoint x="520" y="140" as="targetPoint" />
            <Array as="points">
              <mxPoint x="385" y="260" />
            </Array>
            <mxPoint y="1" as="offset" />
          </mxGeometry>
        </mxCell>
        <mxCell id="2FC1ufxekYEBjPLhtF5f-32" value="Use" style="endArrow=open;endSize=12;dashed=1;html=1;rounded=0;" parent="1" source="2FC1ufxekYEBjPLhtF5f-22" edge="1">
          <mxGeometry width="160" relative="1" as="geometry">
            <mxPoint x="-320" y="240" as="sourcePoint" />
            <mxPoint x="-310" y="180" as="targetPoint" />
          </mxGeometry>
        </mxCell>
        <mxCell id="2FC1ufxekYEBjPLhtF5f-33" value="Use" style="endArrow=open;endSize=12;dashed=1;html=1;rounded=0;exitX=0.238;exitY=0.069;exitDx=0;exitDy=0;exitPerimeter=0;" parent="1" source="2FC1ufxekYEBjPLhtF5f-12" edge="1">
          <mxGeometry width="160" relative="1" as="geometry">
            <mxPoint x="-120" y="300" as="sourcePoint" />
            <mxPoint x="-130" y="178" as="targetPoint" />
            <Array as="points" />
          </mxGeometry>
        </mxCell>
        <mxCell id="2FC1ufxekYEBjPLhtF5f-34" value="Use" style="endArrow=open;endSize=12;dashed=1;html=1;rounded=0;entryX=0.5;entryY=1;entryDx=0;entryDy=0;exitX=0.225;exitY=-0.009;exitDx=0;exitDy=0;exitPerimeter=0;" parent="1" source="2FC1ufxekYEBjPLhtF5f-15" edge="1">
          <mxGeometry width="160" relative="1" as="geometry">
            <mxPoint x="126.7105263157896" y="279.9999999999999" as="sourcePoint" />
            <mxPoint x="120" y="178" as="targetPoint" />
          </mxGeometry>
        </mxCell>
        <mxCell id="2FC1ufxekYEBjPLhtF5f-35" value="" style="endArrow=diamondThin;endFill=0;endSize=24;html=1;rounded=0;" parent="1" edge="1">
          <mxGeometry width="160" relative="1" as="geometry">
            <mxPoint x="-20" y="140" as="sourcePoint" />
            <mxPoint x="70" y="140" as="targetPoint" />
          </mxGeometry>
        </mxCell>
        <mxCell id="2FC1ufxekYEBjPLhtF5f-37" value="" style="endArrow=diamondThin;endFill=1;endSize=24;html=1;rounded=0;exitX=0.002;exitY=0.63;exitDx=0;exitDy=0;exitPerimeter=0;" parent="1" source="7EzZ68nywVVAHR82G-X7-2" edge="1">
          <mxGeometry width="160" relative="1" as="geometry">
            <mxPoint x="-150" y="145.57999999999998" as="sourcePoint" />
            <mxPoint x="-270" y="146" as="targetPoint" />
          </mxGeometry>
        </mxCell>
        <object label="" asdasd="" id="2FC1ufxekYEBjPLhtF5f-39">
          <mxCell style="endArrow=diamondThin;endFill=0;endSize=24;html=1;rounded=0;" parent="1" edge="1">
            <mxGeometry x="0.6471" y="-20" width="160" relative="1" as="geometry">
              <mxPoint x="360" y="140" as="sourcePoint" />
              <mxPoint x="190" y="140" as="targetPoint" />
              <Array as="points">
                <mxPoint x="210" y="140" />
              </Array>
              <mxPoint as="offset" />
            </mxGeometry>
          </mxCell>
        </object>
        <mxCell id="2FC1ufxekYEBjPLhtF5f-41" value="&lt;span style=&quot;color: rgb(0, 0, 0); font-family: Helvetica; font-size: 11px; font-style: normal; font-variant-ligatures: normal; font-variant-caps: normal; font-weight: 400; letter-spacing: normal; orphans: 2; text-align: center; text-indent: 0px; text-transform: none; widows: 2; word-spacing: 0px; -webkit-text-stroke-width: 0px; background-color: rgb(255, 255, 255); text-decoration-thickness: initial; text-decoration-style: initial; text-decoration-color: initial; float: none; display: inline !important;&quot;&gt;0 .. *&lt;/span&gt;" style="text;whiteSpace=wrap;html=1;labelBorderColor=default;" parent="1" vertex="1">
          <mxGeometry x="30" y="100" width="30" height="30" as="geometry" />
        </mxCell>
        <mxCell id="2FC1ufxekYEBjPLhtF5f-43" value="&lt;span style=&quot;color: rgb(0, 0, 0); font-family: Helvetica; font-size: 11px; font-style: normal; font-variant-ligatures: normal; font-variant-caps: normal; font-weight: 400; letter-spacing: normal; orphans: 2; text-align: center; text-indent: 0px; text-transform: none; widows: 2; word-spacing: 0px; -webkit-text-stroke-width: 0px; background-color: rgb(255, 255, 255); text-decoration-thickness: initial; text-decoration-style: initial; text-decoration-color: initial; float: none; display: inline !important;&quot;&gt;0 .. *&lt;/span&gt;" style="text;whiteSpace=wrap;html=1;labelBorderColor=default;" parent="1" vertex="1">
          <mxGeometry x="200" y="100" width="30" height="30" as="geometry" />
        </mxCell>
        <mxCell id="2FC1ufxekYEBjPLhtF5f-48" value="EjemplarService" style="swimlane;fontStyle=1;align=center;verticalAlign=top;childLayout=stackLayout;horizontal=1;startSize=26;horizontalStack=0;resizeParent=1;resizeParentMax=0;resizeLast=0;collapsible=1;marginBottom=0;" parent="1" vertex="1">
          <mxGeometry x="-220" y="622" width="240" height="116" as="geometry">
            <mxRectangle x="280" y="40" width="130" height="30" as="alternateBounds" />
          </mxGeometry>
        </mxCell>
        <mxCell id="2FC1ufxekYEBjPLhtF5f-49" value="- ejemparReposotory : EjemplarServicce" style="text;strokeColor=none;fillColor=none;align=left;verticalAlign=top;spacingLeft=4;spacingRight=4;overflow=hidden;rotatable=0;points=[[0,0.5],[1,0.5]];portConstraint=eastwest;" parent="2FC1ufxekYEBjPLhtF5f-48" vertex="1">
          <mxGeometry y="26" width="240" height="24" as="geometry" />
        </mxCell>
        <mxCell id="2FC1ufxekYEBjPLhtF5f-50" value="" style="line;strokeWidth=1;fillColor=none;align=left;verticalAlign=middle;spacingTop=-1;spacingLeft=3;spacingRight=3;rotatable=0;labelPosition=right;points=[];portConstraint=eastwest;" parent="2FC1ufxekYEBjPLhtF5f-48" vertex="1">
          <mxGeometry y="50" width="240" height="8" as="geometry" />
        </mxCell>
        <mxCell id="2FC1ufxekYEBjPLhtF5f-51" value="+ AgregarEjempalar(int, string, strign)&lt;br&gt;+ ExisteEjemplar(sing,iint)&lt;br&gt;+ Ejemplares disponibles(string)" style="text;html=1;strokeColor=none;fillColor=none;align=left;verticalAlign=middle;whiteSpace=wrap;rounded=0;" parent="2FC1ufxekYEBjPLhtF5f-48" vertex="1">
          <mxGeometry y="58" width="240" height="58" as="geometry" />
        </mxCell>
        <mxCell id="2FC1ufxekYEBjPLhtF5f-52" value="PrestamoService" style="swimlane;fontStyle=1;align=center;verticalAlign=top;childLayout=stackLayout;horizontal=1;startSize=26;horizontalStack=0;resizeParent=1;resizeParentMax=0;resizeLast=0;collapsible=1;marginBottom=0;" parent="1" vertex="1">
          <mxGeometry x="70" y="622" width="270" height="130" as="geometry" />
        </mxCell>
        <mxCell id="2FC1ufxekYEBjPLhtF5f-53" value="- prestamoRepository : PrestamoRepository" style="text;strokeColor=none;fillColor=none;align=left;verticalAlign=top;spacingLeft=4;spacingRight=4;overflow=hidden;rotatable=0;points=[[0,0.5],[1,0.5]];portConstraint=eastwest;" parent="2FC1ufxekYEBjPLhtF5f-52" vertex="1">
          <mxGeometry y="26" width="270" height="24" as="geometry" />
        </mxCell>
        <mxCell id="2FC1ufxekYEBjPLhtF5f-54" value="" style="line;strokeWidth=1;fillColor=none;align=left;verticalAlign=middle;spacingTop=-1;spacingLeft=3;spacingRight=3;rotatable=0;labelPosition=right;points=[];portConstraint=eastwest;" parent="2FC1ufxekYEBjPLhtF5f-52" vertex="1">
          <mxGeometry y="50" width="270" height="8" as="geometry" />
        </mxCell>
        <mxCell id="2FC1ufxekYEBjPLhtF5f-55" value="+ CreatePrestamo(string,int)&lt;br&gt;+ DevolverEjemplar(int,shtring)&lt;br&gt;+ GetPrestamo()&lt;br&gt;&lt;div style=&quot;&quot;&gt;&lt;span style=&quot;background-color: initial;&quot;&gt;+ ExistePrestamoPendiente(int, string)&lt;/span&gt;&lt;/div&gt;" style="text;html=1;strokeColor=none;fillColor=none;align=left;verticalAlign=middle;whiteSpace=wrap;rounded=0;" parent="2FC1ufxekYEBjPLhtF5f-52" vertex="1">
          <mxGeometry y="58" width="270" height="72" as="geometry" />
        </mxCell>
        <mxCell id="2FC1ufxekYEBjPLhtF5f-56" value="SocioService" style="swimlane;fontStyle=1;align=center;verticalAlign=top;childLayout=stackLayout;horizontal=1;startSize=26;horizontalStack=0;resizeParent=1;resizeParentMax=0;resizeLast=0;collapsible=1;marginBottom=0;" parent="1" vertex="1">
          <mxGeometry x="360" y="620" width="210" height="120" as="geometry" />
        </mxCell>
        <mxCell id="2FC1ufxekYEBjPLhtF5f-57" value="- socioRepository : SocioRepository" style="text;strokeColor=none;fillColor=none;align=left;verticalAlign=top;spacingLeft=4;spacingRight=4;overflow=hidden;rotatable=0;points=[[0,0.5],[1,0.5]];portConstraint=eastwest;" parent="2FC1ufxekYEBjPLhtF5f-56" vertex="1">
          <mxGeometry y="26" width="210" height="34" as="geometry" />
        </mxCell>
        <mxCell id="2FC1ufxekYEBjPLhtF5f-58" value="+ ExisteSocio(int)&lt;br&gt;+ GetByIdentificacion(int)&lt;br&gt;+ AddSocio(SocioNodel)" style="text;html=1;strokeColor=default;fillColor=default;align=left;verticalAlign=middle;whiteSpace=wrap;rounded=0;" parent="2FC1ufxekYEBjPLhtF5f-56" vertex="1">
          <mxGeometry y="60" width="210" height="60" as="geometry" />
        </mxCell>
        <mxCell id="2FC1ufxekYEBjPLhtF5f-59" value="LibroService" style="swimlane;fontStyle=1;align=center;verticalAlign=top;childLayout=stackLayout;horizontal=1;startSize=26;horizontalStack=0;resizeParent=1;resizeParentMax=0;resizeLast=0;collapsible=1;marginBottom=0;" parent="1" vertex="1">
          <mxGeometry x="-470" y="622" width="190" height="100" as="geometry">
            <mxRectangle x="280" y="40" width="130" height="30" as="alternateBounds" />
          </mxGeometry>
        </mxCell>
        <mxCell id="2FC1ufxekYEBjPLhtF5f-60" value="- libroRepository : LibroRepository" style="text;strokeColor=none;fillColor=none;align=left;verticalAlign=top;spacingLeft=4;spacingRight=4;overflow=hidden;rotatable=0;points=[[0,0.5],[1,0.5]];portConstraint=eastwest;" parent="2FC1ufxekYEBjPLhtF5f-59" vertex="1">
          <mxGeometry y="26" width="190" height="24" as="geometry" />
        </mxCell>
        <mxCell id="2FC1ufxekYEBjPLhtF5f-61" value="" style="line;strokeWidth=1;fillColor=none;align=left;verticalAlign=middle;spacingTop=-1;spacingLeft=3;spacingRight=3;rotatable=0;labelPosition=right;points=[];portConstraint=eastwest;" parent="2FC1ufxekYEBjPLhtF5f-59" vertex="1">
          <mxGeometry y="50" width="190" height="8" as="geometry" />
        </mxCell>
        <mxCell id="2FC1ufxekYEBjPLhtF5f-62" value="+ AddLibro(libro)&lt;br&gt;+ ExisteLibro(string)" style="text;html=1;strokeColor=none;fillColor=none;align=left;verticalAlign=middle;whiteSpace=wrap;rounded=0;" parent="2FC1ufxekYEBjPLhtF5f-59" vertex="1">
          <mxGeometry y="58" width="190" height="42" as="geometry" />
        </mxCell>
        <mxCell id="2FC1ufxekYEBjPLhtF5f-63" value="Presentador" style="swimlane;fontStyle=1;align=center;verticalAlign=top;childLayout=stackLayout;horizontal=1;startSize=26;horizontalStack=0;resizeParent=1;resizeParentMax=0;resizeLast=0;collapsible=1;marginBottom=0;strokeColor=default;fillColor=default;" parent="1" vertex="1">
          <mxGeometry x="-120" y="1030" width="240" height="320" as="geometry" />
        </mxCell>
        <mxCell id="2FC1ufxekYEBjPLhtF5f-64" value="- database : ProjectContext&#xa;- libroService : LibroService&#xa;- ejemplarService : EjemplarService&#xa;- socioService : SocioService&#xa;- prestamoService : PrestamoService " style="text;strokeColor=none;fillColor=none;align=left;verticalAlign=top;spacingLeft=4;spacingRight=4;overflow=hidden;rotatable=0;points=[[0,0.5],[1,0.5]];portConstraint=eastwest;" parent="2FC1ufxekYEBjPLhtF5f-63" vertex="1">
          <mxGeometry y="26" width="240" height="84" as="geometry" />
        </mxCell>
        <mxCell id="2FC1ufxekYEBjPLhtF5f-65" value="" style="line;strokeWidth=1;fillColor=none;align=left;verticalAlign=middle;spacingTop=-1;spacingLeft=3;spacingRight=3;rotatable=0;labelPosition=right;points=[];portConstraint=eastwest;" parent="2FC1ufxekYEBjPLhtF5f-63" vertex="1">
          <mxGeometry y="110" width="240" height="8" as="geometry" />
        </mxCell>
        <mxCell id="2FC1ufxekYEBjPLhtF5f-66" value="~ CrearDB() : void&#xa;~ PoblarDB() : void&#xa;~ DevolverUnEjemplarCualquieraDeUnSocioCualquiera() : void&#xa;~ AgregarLibroConValoresInvalidos() : void &#xa;~ PrestamosSocioComun() : void&#xa;~ PrestamosSocioVIP()&#xa;~ EjemplaresDisponiblesDe(codigoISBN : string) : List&lt;Ejemplar DTO&gt;&#xa;~ HistorialPrestamos() : List&lt;PrestamoDTO&gt;&#xa;~ AgregarEjemplar(int , string , string) : void&#xa;~ TieneEjemplaresDisponibles(string) : bool&#xa;~ PrestarEjemplar(string ,int) : EjemplarDTO&#xa;~ DevolverEjemplar(EjemplarDTO, int) : void&#xa;~ PuedeRetirarLibros(int) : bool" style="text;strokeColor=none;fillColor=none;align=left;verticalAlign=top;spacingLeft=4;spacingRight=4;overflow=hidden;rotatable=0;points=[[0,0.5],[1,0.5]];portConstraint=eastwest;" parent="2FC1ufxekYEBjPLhtF5f-63" vertex="1">
          <mxGeometry y="118" width="240" height="202" as="geometry" />
        </mxCell>
        <mxCell id="2FC1ufxekYEBjPLhtF5f-79" value="Use" style="endArrow=open;endSize=12;dashed=1;html=1;rounded=0;exitX=0.194;exitY=-0.025;exitDx=0;exitDy=0;exitPerimeter=0;entryX=0.25;entryY=1;entryDx=0;entryDy=0;" parent="1" source="2FC1ufxekYEBjPLhtF5f-56" target="2FC1ufxekYEBjPLhtF5f-30" edge="1">
          <mxGeometry x="-0.0145" width="160" relative="1" as="geometry">
            <mxPoint x="385.15999999999985" y="616.04" as="sourcePoint" />
            <mxPoint x="385" y="460" as="targetPoint" />
            <Array as="points">
              <mxPoint x="400" y="540" />
            </Array>
            <mxPoint y="1" as="offset" />
          </mxGeometry>
        </mxCell>
        <mxCell id="2FC1ufxekYEBjPLhtF5f-80" value="Use" style="endArrow=open;endSize=12;dashed=1;html=1;rounded=0;entryX=0.5;entryY=1;entryDx=0;entryDy=0;exitX=0.842;exitY=-0.01;exitDx=0;exitDy=0;exitPerimeter=0;" parent="1" source="2FC1ufxekYEBjPLhtF5f-59" target="2FC1ufxekYEBjPLhtF5f-25" edge="1">
          <mxGeometry width="160" relative="1" as="geometry">
            <mxPoint x="-310" y="622" as="sourcePoint" />
            <mxPoint x="-310" y="460" as="targetPoint" />
          </mxGeometry>
        </mxCell>
        <mxCell id="2FC1ufxekYEBjPLhtF5f-81" value="Use" style="endArrow=open;endSize=12;dashed=1;html=1;rounded=0;exitX=0.375;exitY=-0.009;exitDx=0;exitDy=0;exitPerimeter=0;entryX=0.25;entryY=1;entryDx=0;entryDy=0;" parent="1" source="2FC1ufxekYEBjPLhtF5f-48" target="2FC1ufxekYEBjPLhtF5f-27" edge="1">
          <mxGeometry width="160" relative="1" as="geometry">
            <mxPoint x="-130" y="590" as="sourcePoint" />
            <mxPoint x="-130" y="458" as="targetPoint" />
            <Array as="points" />
          </mxGeometry>
        </mxCell>
        <mxCell id="2FC1ufxekYEBjPLhtF5f-82" value="Use" style="endArrow=open;endSize=12;dashed=1;html=1;rounded=0;entryX=0.25;entryY=1;entryDx=0;entryDy=0;" parent="1" target="2FC1ufxekYEBjPLhtF5f-28" edge="1">
          <mxGeometry width="160" relative="1" as="geometry">
            <mxPoint x="125" y="620" as="sourcePoint" />
            <mxPoint x="120" y="480" as="targetPoint" />
          </mxGeometry>
        </mxCell>
        <mxCell id="2FC1ufxekYEBjPLhtF5f-83" value="Historial" style="swimlane;fontStyle=1;align=center;verticalAlign=top;childLayout=stackLayout;horizontal=1;startSize=26;horizontalStack=0;resizeParent=1;resizeParentMax=0;resizeLast=0;collapsible=1;marginBottom=0;strokeColor=default;fillColor=default;" parent="1" vertex="1">
          <mxGeometry x="-436.64" y="1030" width="240" height="86" as="geometry" />
        </mxCell>
        <mxCell id="2FC1ufxekYEBjPLhtF5f-84" value="+ field: type" style="text;strokeColor=none;fillColor=none;align=left;verticalAlign=top;spacingLeft=4;spacingRight=4;overflow=hidden;rotatable=0;points=[[0,0.5],[1,0.5]];portConstraint=eastwest;" parent="2FC1ufxekYEBjPLhtF5f-83" vertex="1">
          <mxGeometry y="26" width="240" height="26" as="geometry" />
        </mxCell>
        <mxCell id="2FC1ufxekYEBjPLhtF5f-85" value="" style="line;strokeWidth=1;fillColor=none;align=left;verticalAlign=middle;spacingTop=-1;spacingLeft=3;spacingRight=3;rotatable=0;labelPosition=right;points=[];portConstraint=eastwest;" parent="2FC1ufxekYEBjPLhtF5f-83" vertex="1">
          <mxGeometry y="52" width="240" height="8" as="geometry" />
        </mxCell>
        <mxCell id="2FC1ufxekYEBjPLhtF5f-86" value="+ method(type): type" style="text;strokeColor=none;fillColor=none;align=left;verticalAlign=top;spacingLeft=4;spacingRight=4;overflow=hidden;rotatable=0;points=[[0,0.5],[1,0.5]];portConstraint=eastwest;" parent="2FC1ufxekYEBjPLhtF5f-83" vertex="1">
          <mxGeometry y="60" width="240" height="26" as="geometry" />
        </mxCell>
        <mxCell id="2FC1ufxekYEBjPLhtF5f-91" value="Form1" style="swimlane;fontStyle=1;align=center;verticalAlign=top;childLayout=stackLayout;horizontal=1;startSize=26;horizontalStack=0;resizeParent=1;resizeParentMax=0;resizeLast=0;collapsible=1;marginBottom=0;strokeColor=default;fillColor=default;" parent="1" vertex="1">
          <mxGeometry x="200" y="1030" width="240" height="86" as="geometry" />
        </mxCell>
        <mxCell id="2FC1ufxekYEBjPLhtF5f-92" value="+ field: type" style="text;strokeColor=none;fillColor=none;align=left;verticalAlign=top;spacingLeft=4;spacingRight=4;overflow=hidden;rotatable=0;points=[[0,0.5],[1,0.5]];portConstraint=eastwest;" parent="2FC1ufxekYEBjPLhtF5f-91" vertex="1">
          <mxGeometry y="26" width="240" height="26" as="geometry" />
        </mxCell>
        <mxCell id="2FC1ufxekYEBjPLhtF5f-93" value="" style="line;strokeWidth=1;fillColor=none;align=left;verticalAlign=middle;spacingTop=-1;spacingLeft=3;spacingRight=3;rotatable=0;labelPosition=right;points=[];portConstraint=eastwest;" parent="2FC1ufxekYEBjPLhtF5f-91" vertex="1">
          <mxGeometry y="52" width="240" height="8" as="geometry" />
        </mxCell>
        <mxCell id="2FC1ufxekYEBjPLhtF5f-94" value="+ method(type): type" style="text;strokeColor=none;fillColor=none;align=left;verticalAlign=top;spacingLeft=4;spacingRight=4;overflow=hidden;rotatable=0;points=[[0,0.5],[1,0.5]];portConstraint=eastwest;" parent="2FC1ufxekYEBjPLhtF5f-91" vertex="1">
          <mxGeometry y="60" width="240" height="26" as="geometry" />
        </mxCell>
        <mxCell id="2FC1ufxekYEBjPLhtF5f-95" value="Use" style="endArrow=open;endSize=12;dashed=1;html=1;rounded=0;entryX=-0.014;entryY=0.078;entryDx=0;entryDy=0;entryPerimeter=0;" parent="1" edge="1">
          <mxGeometry width="160" relative="1" as="geometry">
            <mxPoint x="-196.64" y="1074" as="sourcePoint" />
            <mxPoint x="-119.9999999999999" y="1073.756" as="targetPoint" />
          </mxGeometry>
        </mxCell>
        <mxCell id="2FC1ufxekYEBjPLhtF5f-96" value="Use" style="endArrow=open;endSize=12;dashed=1;html=1;rounded=0;entryX=-0.014;entryY=0.078;entryDx=0;entryDy=0;entryPerimeter=0;" parent="1" edge="1">
          <mxGeometry width="160" relative="1" as="geometry">
            <mxPoint x="196.6400000000001" y="1078.996" as="sourcePoint" />
            <mxPoint x="120" y="1079.24" as="targetPoint" />
          </mxGeometry>
        </mxCell>
        <mxCell id="2FC1ufxekYEBjPLhtF5f-99" value="Use" style="endArrow=open;endSize=12;dashed=1;html=1;rounded=0;entryX=0.393;entryY=1;entryDx=0;entryDy=0;entryPerimeter=0;exitX=0.164;exitY=0.001;exitDx=0;exitDy=0;exitPerimeter=0;" parent="1" source="2FC1ufxekYEBjPLhtF5f-63" target="2FC1ufxekYEBjPLhtF5f-76" edge="1">
          <mxGeometry width="160" relative="1" as="geometry">
            <mxPoint x="-210" y="920" as="sourcePoint" />
            <mxPoint x="-50" y="920" as="targetPoint" />
          </mxGeometry>
        </mxCell>
        <mxCell id="2FC1ufxekYEBjPLhtF5f-101" value="Use" style="endArrow=open;endSize=12;dashed=1;html=1;rounded=0;exitX=0.336;exitY=-0.003;exitDx=0;exitDy=0;exitPerimeter=0;entryX=0.429;entryY=1;entryDx=0;entryDy=0;entryPerimeter=0;" parent="1" source="2FC1ufxekYEBjPLhtF5f-63" target="2FC1ufxekYEBjPLhtF5f-76" edge="1">
          <mxGeometry width="160" relative="1" as="geometry">
            <mxPoint y="1010" as="sourcePoint" />
            <mxPoint x="-20" y="820" as="targetPoint" />
          </mxGeometry>
        </mxCell>
        <mxCell id="2FC1ufxekYEBjPLhtF5f-102" value="Use" style="endArrow=open;endSize=12;dashed=1;html=1;rounded=0;entryX=0.393;entryY=1;entryDx=0;entryDy=0;entryPerimeter=0;exitX=0.164;exitY=0.001;exitDx=0;exitDy=0;exitPerimeter=0;" parent="1" edge="1">
          <mxGeometry width="160" relative="1" as="geometry">
            <mxPoint x="39.3299999999999" y="1030" as="sourcePoint" />
            <mxPoint x="40.12999999999985" y="799.68" as="targetPoint" />
          </mxGeometry>
        </mxCell>
        <mxCell id="2FC1ufxekYEBjPLhtF5f-103" value="Use" style="endArrow=open;endSize=12;dashed=1;html=1;rounded=0;entryX=0.393;entryY=1;entryDx=0;entryDy=0;entryPerimeter=0;exitX=0.164;exitY=0.001;exitDx=0;exitDy=0;exitPerimeter=0;" parent="1" edge="1">
          <mxGeometry width="160" relative="1" as="geometry">
            <mxPoint x="79.99999999999989" y="1030" as="sourcePoint" />
            <mxPoint x="80.79999999999984" y="799.68" as="targetPoint" />
          </mxGeometry>
        </mxCell>
        <mxCell id="2FC1ufxekYEBjPLhtF5f-104" value="&lt;span style=&quot;color: rgb(0, 0, 0); font-family: Helvetica; font-size: 11px; font-style: normal; font-variant-ligatures: normal; font-variant-caps: normal; font-weight: 400; letter-spacing: normal; orphans: 2; text-align: center; text-indent: 0px; text-transform: none; widows: 2; word-spacing: 0px; -webkit-text-stroke-width: 0px; background-color: rgb(255, 255, 255); text-decoration-thickness: initial; text-decoration-style: initial; text-decoration-color: initial; float: none; display: inline !important;&quot;&gt;0 .. 1&lt;/span&gt;" style="text;whiteSpace=wrap;html=1;labelBorderColor=default;" parent="1" vertex="1">
          <mxGeometry x="320" y="100" width="30" height="30" as="geometry" />
        </mxCell>
        <mxCell id="2FC1ufxekYEBjPLhtF5f-105" value="&lt;span style=&quot;color: rgb(0, 0, 0); font-family: Helvetica; font-size: 11px; font-style: normal; font-variant-ligatures: normal; font-variant-caps: normal; font-weight: 400; letter-spacing: normal; orphans: 2; text-align: center; text-indent: 0px; text-transform: none; widows: 2; word-spacing: 0px; -webkit-text-stroke-width: 0px; background-color: rgb(255, 255, 255); text-decoration-thickness: initial; text-decoration-style: initial; text-decoration-color: initial; float: none; display: inline !important;&quot;&gt;0 .. 1&lt;/span&gt;" style="text;whiteSpace=wrap;html=1;labelBorderColor=default;" parent="1" vertex="1">
          <mxGeometry x="-10" y="100" width="30" height="30" as="geometry" />
        </mxCell>
        <mxCell id="2FC1ufxekYEBjPLhtF5f-106" value="&lt;span style=&quot;color: rgb(0, 0, 0); font-family: Helvetica; font-size: 11px; font-style: normal; font-variant-ligatures: normal; font-variant-caps: normal; font-weight: 400; letter-spacing: normal; orphans: 2; text-align: center; text-indent: 0px; text-transform: none; widows: 2; word-spacing: 0px; -webkit-text-stroke-width: 0px; background-color: rgb(255, 255, 255); text-decoration-thickness: initial; text-decoration-style: initial; text-decoration-color: initial; float: none; display: inline !important;&quot;&gt;0 .. 1&lt;/span&gt;" style="text;whiteSpace=wrap;html=1;labelBorderColor=default;" parent="1" vertex="1">
          <mxGeometry x="-190" y="100" width="30" height="30" as="geometry" />
        </mxCell>
        <mxCell id="2FC1ufxekYEBjPLhtF5f-107" value="&lt;span style=&quot;color: rgb(0, 0, 0); font-family: Helvetica; font-size: 11px; font-style: normal; font-variant-ligatures: normal; font-variant-caps: normal; font-weight: 400; letter-spacing: normal; orphans: 2; text-align: center; text-indent: 0px; text-transform: none; widows: 2; word-spacing: 0px; -webkit-text-stroke-width: 0px; background-color: rgb(255, 255, 255); text-decoration-thickness: initial; text-decoration-style: initial; text-decoration-color: initial; float: none; display: inline !important;&quot;&gt;1 .. *&lt;/span&gt;" style="text;whiteSpace=wrap;html=1;labelBorderColor=default;" parent="1" vertex="1">
          <mxGeometry x="-260" y="100" width="30" height="30" as="geometry" />
        </mxCell>
      </root>
    </mxGraphModel>
  </diagram>
</mxfile>
